<svg width="32" height="32" viewBox="0 0 32 32" fill="none" xmlns="http://www.w3.org/2000/svg">
<path d="M26.084 8.66602V14.166H20.584" stroke="#01579B" stroke-width="2" stroke-linecap="round" stroke-linejoin="round"/>
<path d="M5.91602 23.334V17.834H11.416" stroke="#01579B" stroke-width="2" stroke-linecap="round" stroke-linejoin="round"/>
<path d="M8.21685 13.2498C8.68175 11.936 9.47189 10.7614 10.5135 9.83558C11.5552 8.90977 12.8144 8.2629 14.1736 7.95535C15.5329 7.64781 16.9479 7.6896 18.2866 8.07683C19.6253 8.46406 20.8442 9.18411 21.8293 10.1698L26.0827 14.1665M5.91602 17.8331L10.1693 21.8298C11.1545 22.8155 12.3734 23.5355 13.7121 23.9227C15.0508 24.31 16.4658 24.3518 17.8251 24.0442C19.1843 23.7367 20.4435 23.0898 21.4852 22.164C22.5268 21.2382 23.3169 20.0636 23.7818 18.7498" stroke="#01579B" stroke-width="2" stroke-linecap="round" stroke-linejoin="round"/>
</svg>
