<svg width="20" height="20" viewBox="0 0 20 20" fill="none" xmlns="http://www.w3.org/2000/svg">
<path d="M11.4862 6.91595V3.91599C11.4862 3.31926 11.2492 2.74697 10.8272 2.32502C10.4053 1.90307 9.83297 1.66602 9.23624 1.66602L6.23628 8.41593V16.6658H14.6962C15.0579 16.6699 15.4089 16.5431 15.6846 16.3088C15.9602 16.0745 16.1419 15.7485 16.1961 15.3908L17.2311 8.64092C17.2638 8.42594 17.2493 8.20644 17.1886 7.99762C17.128 7.7888 17.0227 7.59566 16.88 7.43157C16.7373 7.26749 16.5607 7.13639 16.3623 7.04736C16.1639 6.95832 15.9486 6.91348 15.7311 6.91595H11.4862ZM6.23628 16.6658H3.98631C3.58849 16.6658 3.20696 16.5078 2.92566 16.2265C2.64436 15.9452 2.48633 15.5637 2.48633 15.1658V9.9159C2.48633 9.51809 2.64436 9.13656 2.92566 8.85526C3.20696 8.57396 3.58849 8.41593 3.98631 8.41593H6.23628" fill="#01579B"/>
<path d="M6.23628 16.6658H3.98631C3.58849 16.6658 3.20696 16.5078 2.92566 16.2265C2.64436 15.9452 2.48633 15.5637 2.48633 15.1658V9.9159C2.48633 9.51809 2.64436 9.13656 2.92566 8.85526C3.20696 8.57396 3.58849 8.41592 3.98631 8.41592H6.23628M11.4862 6.91595V3.91599C11.4862 3.31926 11.2492 2.74697 10.8272 2.32502C10.4053 1.90307 9.83297 1.66602 9.23624 1.66602L6.23628 8.41592V16.6658H14.6962C15.0579 16.6699 15.4089 16.5431 15.6846 16.3088C15.9602 16.0745 16.1419 15.7485 16.1961 15.3908L17.2311 8.64092C17.2638 8.42594 17.2493 8.20644 17.1886 7.99762C17.128 7.7888 17.0227 7.59566 16.88 7.43157C16.7373 7.26749 16.5607 7.13639 16.3623 7.04736C16.1639 6.95832 15.9486 6.91348 15.7311 6.91595H11.4862Z" stroke="#01579B" stroke-width="1.34998" stroke-linecap="round" stroke-linejoin="round"/>
</svg>
