<svg width="32" height="32" viewBox="0 0 32 32" fill="none" xmlns="http://www.w3.org/2000/svg">
<path fill-rule="evenodd" clip-rule="evenodd" d="M23.2297 11.0096C23.3023 10.9867 23.3978 11.0324 23.4933 11.1579C23.4933 11.1579 23.4933 11.1579 27.8098 15.3641C28.0619 15.6151 28.0619 15.9954 27.8098 16.1818C27.8098 16.1818 27.8098 16.1818 23.4933 20.4527C23.3978 20.5782 23.3023 20.6086 23.2297 20.5706C23.1572 20.5325 23.1113 20.4223 23.1113 20.2625V11.2834C23.1113 11.1275 23.1572 11.0324 23.2297 11.0096Z" fill="#ED1C24"/>
<path fill-rule="evenodd" clip-rule="evenodd" d="M15.8477 4H16.1532L16.4474 4.1217C16.4474 4.1217 16.4474 4.1217 20.8899 8.5181C21.0809 8.7691 21.0159 8.95926 20.6989 8.95926C20.6989 8.95926 20.6989 8.95926 18.8577 8.95926C18.5407 8.95926 18.2886 9.21026 18.2886 9.52592C18.2886 9.52592 18.2886 9.52592 18.2886 12.789C18.2886 13.1046 18.0326 13.3557 17.6506 13.3557C17.6506 13.3557 17.6506 13.3557 14.4152 13.3557C14.0981 13.3557 13.8422 13.1046 13.8422 12.789C13.8422 12.789 13.8422 12.789 13.8422 9.52592C13.8422 9.21026 13.5901 8.95926 13.2692 8.95926H11.302C10.9849 8.95926 10.92 8.7691 11.111 8.5181C11.111 8.5181 11.111 8.5181 15.5573 4.1217L15.8477 4Z" fill="#ED1C24"/>
<path fill-rule="evenodd" clip-rule="evenodd" d="M8.88753 10.9138C8.96775 10.9518 9.01741 11.0621 9.01741 11.2218V20.3873C9.01741 20.547 8.96775 20.6421 8.88753 20.6725C8.81113 20.703 8.70036 20.6725 8.57048 20.5775C8.57048 20.5775 8.57048 20.5775 4.18908 16.1811C3.93697 15.9947 3.93697 15.6144 4.18908 15.3634C4.18908 15.3634 4.18908 15.3634 8.57048 11.0317C8.70036 10.9061 8.81113 10.8757 8.88753 10.9138Z" fill="#ED1C24"/>
<path fill-rule="evenodd" clip-rule="evenodd" d="M14.4147 18.1289C14.4147 18.1289 14.4147 18.1289 17.6501 18.1289C18.0321 18.1289 18.2881 18.3799 18.2881 18.6956C18.2881 18.6956 18.2881 18.6956 18.2881 22.1488C18.2881 22.5253 18.5402 22.7763 18.8572 22.7763H20.5723C20.8894 22.7763 21.0155 22.9627 20.7633 23.1528C20.7633 23.1528 20.7633 23.1528 16.4469 27.4846C16.317 27.6101 16.1604 27.6747 16 27.6747C15.8433 27.6747 15.6829 27.6101 15.5569 27.4846C15.5569 27.4846 15.5569 27.4846 11.2404 23.1528C10.9845 22.9627 11.1105 22.7763 11.4276 22.7763C11.4276 22.7763 11.4276 22.7763 13.2687 22.7763C13.5896 22.7763 13.8417 22.5253 13.8417 22.1488C13.8417 22.1488 13.8417 22.1488 13.8417 18.6956C13.8417 18.3799 14.0977 18.1289 14.4147 18.1289Z" fill="#ED1C24"/>
</svg>
