<svg width="24" height="24" viewBox="0 0 24 24" fill="none" xmlns="http://www.w3.org/2000/svg">
<path d="M8.01548 13.3043L14.9852 17.6522M14.9852 6.34783L8.01548 10.6957M21.0837 5.04348C21.0837 6.72434 19.7185 8.08696 18.0344 8.08696C16.3504 8.08696 14.9852 6.72434 14.9852 5.04348C14.9852 3.36261 16.3504 2 18.0344 2C19.7185 2 21.0837 3.36261 21.0837 5.04348ZM8.01548 12C8.01548 13.6809 6.65028 15.0435 4.96623 15.0435C3.28218 15.0435 1.91699 13.6809 1.91699 12C1.91699 10.3191 3.28218 8.95652 4.96623 8.95652C6.65028 8.95652 8.01548 10.3191 8.01548 12ZM21.0837 18.9565C21.0837 20.6374 19.7185 22 18.0344 22C16.3504 22 14.9852 20.6374 14.9852 18.9565C14.9852 17.2757 16.3504 15.913 18.0344 15.913C19.7185 15.913 21.0837 17.2757 21.0837 18.9565Z" stroke="#01579B" stroke-width="1.5" stroke-linecap="round" stroke-linejoin="round"/>
</svg>
