<svg width="24" height="24" viewBox="0 0 24 24" fill="none" xmlns="http://www.w3.org/2000/svg">
<path d="M17.8518 7.47504L17.852 7.4752C18.1638 7.78385 18.411 8.15004 18.5795 8.55273C18.748 8.95541 18.8346 9.38684 18.8346 9.82243C18.8346 10.258 18.748 10.6894 18.5795 11.0921C18.411 11.4948 18.1638 11.861 17.852 12.1696L17.8519 12.1697L17.1081 12.9062L12.0011 17.963L6.89408 12.9062L6.15033 12.1697C5.52075 11.5463 5.16797 10.7019 5.16797 9.82243C5.16797 8.94296 5.52075 8.09851 6.15033 7.47512C6.78008 6.85156 7.63524 6.50037 8.52795 6.50037C9.42065 6.50037 10.2758 6.85156 10.9056 7.47512L11.6493 8.21156C11.8442 8.4045 12.1581 8.4045 12.3529 8.21156L13.0967 7.47512L13.0968 7.47504C13.4085 7.16624 13.7788 6.92101 14.1868 6.75362C14.5949 6.58622 15.0323 6.5 15.4743 6.5C15.9162 6.5 16.3537 6.58622 16.7617 6.75362C17.1697 6.92102 17.5401 7.16624 17.8518 7.47504Z" stroke="#D9D9D9" stroke-linecap="round" stroke-linejoin="round"/>
</svg>
