<svg width="32" height="32" viewBox="0 0 32 32" fill="none" xmlns="http://www.w3.org/2000/svg">
<path d="M24.7758 9.21256L24.776 9.2128C25.2438 9.67577 25.6145 10.2251 25.8672 10.8291C26.12 11.4331 26.25 12.0803 26.25 12.7336C26.25 13.387 26.12 14.0342 25.8672 14.6382C25.6145 15.2422 25.2438 15.7915 24.776 16.2545L24.7759 16.2546L23.6603 17.3593L15.9997 24.9445L8.33917 17.3593L7.22355 16.2546C6.27918 15.3195 5.75 14.0528 5.75 12.7336C5.75 11.4144 6.27918 10.1478 7.22355 9.21268C8.16817 8.27734 9.45091 7.75056 10.79 7.75056C12.129 7.75056 13.4118 8.27734 14.3564 9.21268L15.472 10.3173C15.7643 10.6068 16.2351 10.6068 16.5274 10.3173L17.643 9.21268L17.6432 9.21256C18.1108 8.74935 18.6663 8.38152 19.2783 8.13043C19.8903 7.87933 20.5466 7.75 21.2095 7.75C21.8724 7.75 22.5286 7.87933 23.1406 8.13043C23.7526 8.38152 24.3082 8.74935 24.7758 9.21256Z" stroke="#F4F8FB" stroke-width="1.5" stroke-linecap="round" stroke-linejoin="round"/>
</svg>
