<svg width="47" height="47" viewBox="0 0 47 47" fill="none" xmlns="http://www.w3.org/2000/svg">
<g clip-path="url(#clip0_477_2659)">
<path d="M23.5016 46.9076C23.2689 46.9076 23.0372 46.9033 22.806 46.8966L27.5897 33.7494H34.1732C35.3287 33.7494 36.5972 32.8611 36.9924 31.7758L42.1824 17.5202C43.0315 15.1863 41.6947 13.2768 39.2112 13.2768H30.0779L22.4145 34.3348H22.4117L18.0673 46.272C7.76025 43.8216 0.09375 34.5564 0.09375 23.4997C0.09375 12.7618 7.32428 3.71362 17.1818 0.955936L12.6991 13.2768H12.6978L5.24553 33.7494L10.2065 33.7499L16.544 16.3532H20.2724L13.9348 33.7499L18.8939 33.7507L24.7998 17.5202C25.6495 15.1863 24.3125 13.2768 21.8313 13.2768H17.6611L22.4495 0.116397C22.7986 0.1009 23.1489 0.0917969 23.5016 0.0917969C36.4294 0.0917969 46.9094 10.5718 46.9094 23.4997C46.9094 36.4274 36.4294 46.9076 23.5016 46.9076ZM37.6646 16.3407H33.9372L28.7174 30.6626H32.4449L37.6646 16.3407Z" fill="#01579B"/>
</g>
<defs>
<clipPath id="clip0_477_2659">
<rect width="47" height="47" fill="white"/>
</clipPath>
</defs>
</svg>
