<svg width="32" height="32" viewBox="0 0 32 32" fill="none" xmlns="http://www.w3.org/2000/svg">
<path d="M7.50003 26.798C6.82224 26.7082 7.68892 22.5305 7.68892 22.5305H6.22224C4.97779 22.5305 4 21.5422 4 20.2842V7.44551C4 6.18759 4.97779 5.19922 6.22224 5.19922H25.778C27.0224 5.19922 28.0002 6.18759 28.0002 7.44551V20.2842C28.0002 21.5422 27.0224 22.5305 25.778 22.5305H13.9112C13.9112 22.5305 8.17783 26.8879 7.50003 26.798ZM6.22224 6.09774C5.46668 6.09774 4.8889 6.68177 4.8889 7.44551V20.2842C4.8889 21.048 5.46668 21.632 6.22224 21.632H8.88893L8.50004 24.6875L13.6001 21.632H25.778C26.5335 21.632 27.1113 21.048 27.1113 20.2842V7.44551C27.1113 6.68177 26.5335 6.09774 25.778 6.09774H6.22224Z" fill="#060F42" stroke="#060F42" stroke-width="0.5"/>
<path d="M11.2 14.7985C11.8628 14.7985 12.4 14.2612 12.4 13.5984C12.4 12.9357 11.8628 12.3984 11.2 12.3984C10.5373 12.3984 10 12.9357 10 13.5984C10 14.2612 10.5373 14.7985 11.2 14.7985Z" fill="#060F42"/>
<path d="M16.0008 14.7985C16.6635 14.7985 17.2008 14.2612 17.2008 13.5984C17.2008 12.9357 16.6635 12.3984 16.0008 12.3984C15.338 12.3984 14.8008 12.9357 14.8008 13.5984C14.8008 14.2612 15.338 14.7985 16.0008 14.7985Z" fill="#060F42"/>
<path d="M20.7996 14.7985C21.4624 14.7985 21.9996 14.2612 21.9996 13.5984C21.9996 12.9357 21.4624 12.3984 20.7996 12.3984C20.1369 12.3984 19.5996 12.9357 19.5996 13.5984C19.5996 14.2612 20.1369 14.7985 20.7996 14.7985Z" fill="#060F42"/>
</svg>
