<svg width="24" height="24" viewBox="0 0 24 24" fill="none" xmlns="http://www.w3.org/2000/svg">
<path d="M17.3733 2.75204C17.625 2.51361 17.9238 2.32448 18.2526 2.19545C18.5814 2.06641 18.9338 2 19.2897 2C19.6457 2 19.9981 2.06641 20.3269 2.19545C20.6557 2.32448 20.9545 2.51361 21.2062 2.75204C21.4579 2.99046 21.6575 3.27351 21.7937 3.58503C21.9299 3.89655 22 4.23043 22 4.56761C22 4.90479 21.9299 5.23868 21.7937 5.55019C21.6575 5.86171 21.4579 6.14476 21.2062 6.38319L8.27021 18.6383L3 20L4.43733 15.0072L17.3733 2.75204Z" stroke="#01579B" stroke-width="2" stroke-linecap="round" stroke-linejoin="round"/>
</svg>
