<svg width="32" height="32" viewBox="0 0 32 32" fill="none" xmlns="http://www.w3.org/2000/svg">
<path d="M13.9 8.24002C14.5883 8.0789 15.2931 7.99836 16 8.00003C23 8.00003 27 16 27 16C26.393 17.1356 25.6691 18.2048 24.84 19.19M18.12 18.12C17.8454 18.4148 17.5141 18.6512 17.1462 18.8151C16.7782 18.9791 16.3809 19.0673 15.9781 19.0744C15.5753 19.0815 15.1752 19.0074 14.8016 18.8565C14.4281 18.7056 14.0887 18.4811 13.8038 18.1962C13.519 17.9113 13.2944 17.572 13.1435 17.1984C12.9926 16.8249 12.9185 16.4247 12.9256 16.0219C12.9327 15.6191 13.0209 15.2219 13.1849 14.8539C13.3488 14.4859 13.5853 14.1547 13.88 13.88M21.94 21.94C20.2306 23.243 18.1491 23.9649 16 24C9 24 5 16 5 16C6.24389 13.6819 7.96914 11.6566 10.06 10.06L21.94 21.94Z" stroke="#060F42" stroke-width="1.5" stroke-linecap="round" stroke-linejoin="round"/>
<path d="M5 5L27 27" stroke="#060F42" stroke-width="1.5" stroke-linecap="round" stroke-linejoin="round"/>
</svg>
