<svg width="20" height="20" viewBox="0 0 20 20" fill="none" xmlns="http://www.w3.org/2000/svg">
<path d="M6.23701 16.6658H3.98704C3.58922 16.6658 3.2077 16.5078 2.92639 16.2265C2.64509 15.9452 2.48706 15.5637 2.48706 15.1658V9.9159C2.48706 9.51809 2.64509 9.13656 2.92639 8.85526C3.2077 8.57396 3.58922 8.41592 3.98704 8.41592H6.23701M11.4869 6.91595V3.91599C11.4869 3.31926 11.2499 2.74697 10.8279 2.32502C10.406 1.90307 9.8337 1.66602 9.23697 1.66602L6.23701 8.41592V16.6658H14.6969C15.0586 16.6699 15.4097 16.5431 15.6853 16.3088C15.961 16.0745 16.1426 15.7485 16.1969 15.3908L17.2319 8.64092C17.2645 8.42594 17.25 8.20644 17.1894 7.99762C17.1287 7.7888 17.0234 7.59566 16.8808 7.43157C16.7381 7.26749 16.5614 7.13639 16.3631 7.04736C16.1647 6.95832 15.9493 6.91348 15.7319 6.91595H11.4869Z" stroke="#01579B" stroke-width="1.34998" stroke-linecap="round" stroke-linejoin="round"/>
</svg>
