<svg width="24" height="24" viewBox="0 0 24 24" fill="none" xmlns="http://www.w3.org/2000/svg">
<path fill-rule="evenodd" clip-rule="evenodd" d="M23.9993 12.2672C23.9993 11.4506 23.9313 10.634 23.7952 9.83398H12.248V14.4505H18.8635C18.5914 15.9338 17.707 17.2671 16.4146 18.1004V21.1003H20.36C22.6728 19.017 23.9993 15.9338 23.9993 12.2672Z" fill="#4285F4"/>
<path fill-rule="evenodd" clip-rule="evenodd" d="M12.2494 24.0005C15.5486 24.0005 18.3376 22.9339 20.3614 21.1006L16.4159 18.1007C15.3105 18.834 13.899 19.2506 12.2494 19.2506C9.05227 19.2506 6.34828 17.134 5.37893 14.3008H1.31445V17.4007C3.38921 21.4506 7.62375 24.0005 12.2494 24.0005Z" fill="#34A853"/>
<path fill-rule="evenodd" clip-rule="evenodd" d="M5.37821 14.3003C4.86802 12.817 4.86802 11.2004 5.37821 9.70043V6.61719H1.31373C-0.437909 10.0004 -0.437909 14.0003 1.31373 17.3835L5.37821 14.3003Z" fill="#FBBC04"/>
<path fill-rule="evenodd" clip-rule="evenodd" d="M12.2494 4.75058C14.0011 4.71725 15.6847 5.36723 16.9431 6.55053L20.4464 3.1173C18.2186 1.08403 15.2935 -0.032607 12.2494 0.000725328C7.62375 0.000725328 3.38921 2.56731 1.31445 6.61719L5.37893 9.7171C6.34828 6.86718 9.05226 4.75058 12.2494 4.75058Z" fill="#EA4335"/>
</svg>
