<?xml version="1.0" standalone="no"?>
<!DOCTYPE svg PUBLIC "-//W3C//DTD SVG 20010904//EN"
 "http://www.w3.org/TR/2001/REC-SVG-20010904/DTD/svg10.dtd">
<svg version="1.0" xmlns="http://www.w3.org/2000/svg"
 width="700.000000pt" height="700.000000pt" viewBox="0 0 700.000000 700.000000"
 preserveAspectRatio="xMidYMid meet">
<metadata>
Created by potrace 1.14, written by Peter Selinger 2001-2017
</metadata>
<g transform="translate(0.000000,700.000000) scale(0.100000,-0.100000)"
fill="#000000" stroke="none">
<path d="M3925 6809 c-1015 -581 -3597 -2078 -3617 -2097 -15 -14 -35 -41 -45
-61 -16 -34 -17 -118 -14 -1370 2 -734 5 -1341 8 -1348 7 -17 124 -83 149 -83
25 0 3680 2109 3717 2145 15 14 35 41 45 58 16 30 17 116 14 1367 -2 734 -5
1342 -8 1350 -4 18 -122 90 -145 90 -8 0 -55 -23 -104 -51z m125 -406 l0 -208
-1781 -1028 c-980 -565 -1783 -1026 -1784 -1025 -1 2 -4 94 -6 206 l-4 204
1780 1028 c979 566 1783 1029 1788 1029 4 1 7 -92 7 -206z m-2642 -2139 c53
-31 99 -58 101 -60 7 -7 -204 -364 -216 -364 -29 0 -19 28 56 157 44 76 83
145 86 154 5 13 -13 27 -79 63 -47 26 -86 51 -86 57 0 13 23 49 32 49 5 0 52
-25 106 -56z m342 -111 l0 -48 -68 -37 c-37 -21 -86 -49 -109 -63 l-43 -26 0
48 1 48 107 62 c59 34 108 62 110 62 1 1 2 -20 2 -46z m-629 -183 c49 -138 57
-167 45 -178 -11 -11 -23 14 -75 158 -57 161 -65 196 -39 188 6 -2 37 -78 69
-168z m-121 -8 c0 -26 -37 -59 -51 -45 -15 15 10 63 33 63 11 0 18 -7 18 -18z
m-110 -71 c0 -28 -13 -40 -39 -35 -71 15 -154 -127 -121 -206 19 -46 62 -42
111 10 21 22 41 40 44 40 15 0 1 -33 -26 -65 -56 -63 -120 -83 -153 -46 -56
61 -4 230 89 291 31 20 95 27 95 11z m110 -158 c0 -17 -27 -53 -40 -53 -16 0
-18 29 -4 49 18 25 44 28 44 4z"/>
<path d="M4075 3725 c-49 -30 -99 -59 -109 -65 -17 -11 -15 -15 32 -42 l52
-30 115 67 c63 37 115 69 115 71 0 7 -88 54 -101 53 -8 0 -54 -25 -104 -54z"/>
<path d="M4123 3572 c-111 -65 -205 -121 -209 -124 -6 -7 183 -122 200 -121 6
0 94 49 196 108 239 139 234 135 224 145 -17 16 -186 110 -197 110 -7 0 -103
-53 -214 -118z"/>
<path d="M3746 3533 l-109 -66 24 -18 c62 -48 68 -47 194 26 l116 68 -48 28
c-26 16 -52 28 -58 28 -5 0 -59 -30 -119 -66z"/>
<path d="M4330 3389 c-140 -83 -261 -153 -268 -158 -9 -5 21 -27 92 -68 l105
-60 270 156 c149 86 269 160 268 165 -4 12 -185 116 -200 115 -7 0 -127 -68
-267 -150z"/>
<path d="M3431 3350 l-113 -68 44 -26 c25 -14 51 -26 58 -26 14 0 230 122 230
130 0 5 -95 61 -101 59 -2 0 -55 -31 -118 -69z"/>
<path d="M3715 3335 c-60 -35 -111 -68 -112 -72 -2 -5 42 -34 96 -66 l100 -58
115 67 c64 36 113 70 111 74 -3 5 -31 23 -63 40 -31 18 -75 43 -97 56 l-40 23
-110 -64z"/>
<path d="M4748 3328 c-58 -35 -106 -67 -105 -73 0 -5 103 -69 228 -141 l227
-131 116 66 c63 36 115 68 116 71 0 6 -447 264 -464 268 -6 1 -59 -26 -118
-60z"/>
<path d="M3118 3167 c-59 -34 -108 -65 -108 -68 0 -3 22 -18 48 -32 l48 -26
101 58 c55 32 108 63 118 68 15 9 11 14 -28 36 -25 15 -52 27 -59 27 -7 0 -61
-28 -120 -63z"/>
<path d="M3397 3151 c-54 -32 -103 -63 -108 -68 -7 -7 175 -123 195 -123 4 0
59 30 122 67 l115 66 -98 58 c-54 32 -105 58 -113 58 -8 0 -59 -26 -113 -58z"/>
<path d="M3853 3112 c-62 -37 -113 -69 -113 -72 1 -3 46 -31 102 -63 l102 -57
110 63 c61 35 111 68 113 73 2 7 -172 115 -195 121 -4 0 -58 -29 -119 -65z"/>
<path d="M4693 2992 c-62 -36 -113 -68 -113 -71 1 -3 46 -32 102 -63 l101 -58
111 64 c60 34 111 67 113 72 2 7 -170 113 -196 121 -4 1 -57 -28 -118 -65z"/>
<path d="M2810 2989 c-58 -34 -108 -65 -113 -68 -4 -4 15 -20 43 -35 l51 -28
97 56 c148 83 143 78 89 109 -25 15 -49 27 -54 27 -4 0 -55 -28 -113 -61z"/>
<path d="M3075 2964 c-60 -36 -110 -66 -112 -67 -4 -5 194 -117 206 -117 14 0
231 123 231 130 0 7 -197 120 -207 119 -4 0 -57 -30 -118 -65z"/>
<path d="M4117 2961 c-64 -36 -117 -68 -117 -71 0 -3 30 -22 68 -42 37 -21 83
-47 103 -59 l36 -21 99 57 c54 32 107 64 117 70 16 11 6 20 -86 73 l-105 59
-115 -66z"/>
<path d="M3538 2928 c-60 -34 -108 -66 -108 -70 0 -4 45 -32 100 -63 l100 -57
98 56 c154 88 151 74 35 140 -54 31 -103 56 -109 56 -5 0 -57 -28 -116 -62z"/>
<path d="M2493 2804 c-62 -36 -110 -70 -107 -75 8 -14 84 -51 98 -47 21 5 216
122 216 129 0 6 -83 59 -92 59 -2 0 -54 -30 -115 -66z"/>
<path d="M4465 2858 c-11 -6 -62 -36 -113 -65 l-93 -55 103 -59 c89 -52 106
-59 126 -49 34 15 212 120 212 125 0 6 -195 115 -206 115 -5 0 -18 -6 -29 -12z"/>
<path d="M2762 2782 c-67 -40 -109 -69 -103 -75 5 -5 51 -33 103 -62 l93 -54
55 32 c30 17 84 48 119 68 l63 37 -73 42 c-41 24 -88 51 -105 61 -17 11 -33
19 -35 18 -2 0 -55 -30 -117 -67z"/>
<path d="M3230 2749 c-58 -33 -109 -64 -113 -69 -8 -7 178 -120 198 -120 14 0
225 123 225 131 0 7 -188 119 -199 119 -3 0 -53 -28 -111 -61z"/>
<path d="M2176 2620 l-118 -68 26 -16 c84 -51 64 -54 191 21 63 37 115 70 115
73 0 3 -22 17 -48 31 l-48 27 -118 -68z"/>
<path d="M4070 2629 c-58 -33 -109 -64 -113 -69 -8 -7 178 -120 198 -120 14 0
225 123 225 132 0 6 -190 118 -201 118 -2 0 -51 -27 -109 -61z"/>
<path d="M2453 2601 c-62 -36 -113 -69 -113 -72 0 -4 45 -32 100 -64 l101 -57
97 56 c153 87 147 76 61 126 -41 23 -87 50 -104 60 l-30 17 -112 -66z"/>
<path d="M3487 2595 c-60 -35 -111 -66 -113 -68 -3 -3 42 -32 99 -65 l105 -59
115 66 c64 36 116 68 116 71 1 6 -189 114 -204 117 -5 1 -59 -27 -118 -62z"/>
<path d="M2921 2569 c-57 -33 -111 -63 -119 -68 -10 -6 15 -25 92 -69 l106
-61 115 67 c63 37 115 69 115 72 0 3 -17 14 -38 25 -20 12 -66 37 -102 57
l-65 37 -104 -60z"/>
<path d="M3763 2451 c-55 -32 -108 -63 -118 -68 -14 -8 1 -20 89 -71 l106 -61
115 67 c63 37 115 69 115 72 0 3 -17 14 -38 25 -20 12 -66 37 -102 58 l-66 36
-101 -58z"/>
<path d="M1861 2437 c-57 -34 -103 -66 -102 -72 2 -5 22 -21 46 -34 l43 -23
98 58 c151 87 142 77 90 108 -24 14 -51 26 -58 26 -7 -1 -60 -29 -117 -63z"/>
<path d="M2140 2419 c-58 -33 -109 -64 -113 -68 -5 -5 38 -34 93 -66 91 -51
105 -56 127 -46 37 17 215 123 211 126 -11 9 -201 115 -206 115 -4 0 -54 -27
-112 -61z"/>
<path d="M3175 2414 c-60 -35 -111 -68 -112 -72 -2 -4 43 -33 99 -65 l101 -57
113 66 c63 36 114 69 114 72 0 4 -17 16 -38 27 -20 12 -66 37 -102 57 l-65 36
-110 -64z"/>
<path d="M6720 2441 c-14 -10 -173 -104 -355 -208 -181 -105 -1014 -586 -1850
-1069 l-1520 -879 -75 0 -75 0 -1235 719 c-679 395 -1241 723 -1248 728 -9 8
-12 -2 -12 -45 0 -44 5 -61 22 -81 13 -14 574 -346 1248 -738 l1225 -713 75 0
75 0 1868 1080 c1028 595 1873 1088 1878 1098 6 9 9 41 7 71 l-3 55 -25 -18z"/>
<path d="M2588 2377 c-59 -34 -108 -64 -108 -67 0 -4 175 -107 201 -118 5 -2
223 120 237 133 5 5 -196 115 -210 114 -7 0 -61 -28 -120 -62z"/>
<path d="M2970 1990 c-322 -187 -586 -343 -588 -348 -1 -4 43 -34 98 -65 l101
-58 587 341 c323 188 591 345 595 349 8 8 -180 121 -200 121 -4 0 -271 -153
-593 -340z"/>
<path d="M1545 2254 c-60 -36 -111 -67 -113 -69 -4 -4 88 -55 99 -55 13 0 228
124 229 132 0 7 -88 58 -99 58 -3 -1 -55 -30 -116 -66z"/>
<path d="M1834 2241 c-56 -32 -109 -63 -118 -68 -14 -8 2 -21 89 -71 l106 -61
114 67 c63 37 115 69 115 72 0 4 -171 105 -199 118 -4 1 -52 -24 -107 -57z"/>
<path d="M2865 2235 c-49 -30 -99 -59 -109 -65 -20 -13 -11 -19 151 -109 l42
-24 115 67 c64 37 116 69 116 71 0 7 -199 115 -212 114 -7 0 -53 -25 -103 -54z"/>
<path d="M4455 2261 c-22 -10 -301 -170 -620 -354 -581 -336 -609 -355 -573
-384 30 -25 619 -363 642 -369 37 -9 70 9 701 374 500 289 570 333 570 353 0
21 -42 48 -311 205 -172 100 -325 185 -340 188 -18 4 -44 -1 -69 -13z"/>
<path d="M2278 2197 c-59 -34 -108 -65 -108 -69 0 -7 187 -118 200 -118 11 0
218 119 225 130 5 8 -183 120 -201 119 -5 0 -57 -28 -116 -62z"/>
<path d="M1233 2072 c-62 -36 -113 -69 -113 -72 0 -3 22 -17 48 -31 l48 -27
118 68 118 68 -42 27 c-23 14 -47 28 -53 30 -7 2 -63 -26 -124 -63z"/>
<path d="M1507 2052 c-64 -37 -117 -69 -117 -72 0 -3 30 -22 68 -42 37 -21 83
-47 103 -59 l35 -21 115 67 c62 37 115 68 117 70 2 1 -34 24 -80 50 -46 27
-92 54 -103 61 -18 12 -33 6 -138 -54z"/>
<path d="M2536 2043 c-59 -36 -104 -69 -100 -73 16 -15 185 -110 196 -110 15
0 228 123 228 131 0 9 -193 119 -206 118 -5 0 -58 -30 -118 -66z"/>
<path d="M1969 2017 c-58 -34 -106 -66 -107 -72 -1 -5 42 -36 95 -67 l98 -56
35 20 c19 11 70 40 113 65 42 25 77 48 77 53 0 7 -190 121 -201 120 -2 -1 -52
-29 -110 -63z"/>
<path d="M918 1888 c-60 -34 -108 -65 -108 -69 0 -4 20 -19 45 -34 l46 -26
114 66 c63 37 115 68 115 71 0 7 -79 54 -92 54 -7 0 -61 -28 -120 -62z"/>
<path d="M1128 1832 c-92 -53 -168 -99 -168 -102 0 -4 143 -90 190 -113 12 -6
61 18 176 84 87 51 165 98 172 104 11 10 -6 23 -84 69 -53 31 -102 56 -108 56
-6 0 -86 -44 -178 -98z"/>
<path d="M2221 1860 l-113 -68 73 -42 c41 -24 88 -51 105 -61 l30 -18 116 67
c64 36 115 69 112 73 -4 8 -198 119 -205 118 -2 0 -55 -31 -118 -69z"/>
<path d="M1505 1747 c-143 -84 -266 -156 -273 -161 -10 -6 13 -24 80 -63 51
-30 98 -57 105 -60 11 -4 553 303 553 313 0 5 -62 43 -140 86 l-65 36 -260
-151z"/>
<path d="M1908 1677 c-59 -34 -108 -64 -108 -67 0 -5 195 -120 203 -120 13 0
220 127 220 135 0 12 -172 115 -193 115 -8 0 -63 -28 -122 -63z"/>
<path d="M2021 1440 c-139 -82 -258 -153 -263 -158 -10 -10 167 -122 192 -122
7 0 134 70 282 156 233 136 266 158 251 168 -58 39 -182 106 -194 105 -8 0
-128 -67 -268 -149z"/>
<path d="M1592 1494 l-114 -67 99 -58 c54 -32 103 -58 110 -59 6 0 62 30 123
66 100 59 110 67 93 78 -44 30 -181 106 -189 106 -5 0 -60 -30 -122 -66z"/>
</g>
</svg>
