<svg width="32" height="32" viewBox="0 0 32 32" fill="none" xmlns="http://www.w3.org/2000/svg">
<mask id="path-1-inside-1_10469_22868" fill="white">
<rect x="6" y="18.6523" width="7.34697" height="7.34697" rx="1"/>
</mask>
<rect x="6" y="18.6523" width="7.34697" height="7.34697" rx="1" stroke="#F4F8FB" stroke-width="3" mask="url(#path-1-inside-1_10469_22868)"/>
<mask id="path-2-inside-2_10469_22868" fill="white">
<rect x="6" y="8.04102" width="7.34697" height="7.34697" rx="1"/>
</mask>
<rect x="6" y="8.04102" width="7.34697" height="7.34697" rx="1" stroke="#F4F8FB" stroke-width="3" mask="url(#path-2-inside-2_10469_22868)"/>
<mask id="path-3-inside-3_10469_22868" fill="white">
<rect x="16.6133" y="18.6523" width="7.34697" height="7.34697" rx="1"/>
</mask>
<rect x="16.6133" y="18.6523" width="7.34697" height="7.34697" rx="1" stroke="#F4F8FB" stroke-width="3" mask="url(#path-3-inside-3_10469_22868)"/>
<path d="M16.0773 11.7569C15.9796 11.6592 15.9796 11.5009 16.0773 11.4033L20.2428 7.23777C20.3404 7.14014 20.4987 7.14014 20.5964 7.23777L24.7619 11.4033C24.8595 11.5009 24.8595 11.6592 24.7619 11.7569L20.5964 15.9224C20.4987 16.02 20.3404 16.02 20.2428 15.9224L18.16 13.8396L16.0773 11.7569Z" stroke="#F4F8FB" stroke-width="1.5"/>
</svg>
