<svg width="24" height="24" viewBox="0 0 24 24" fill="none" xmlns="http://www.w3.org/2000/svg">
<path d="M20 13.8088V20H16.5699V14.2237C16.5699 12.7734 16.0747 11.7829 14.8328 11.7829C13.885 11.7829 13.322 12.4497 13.0734 13.0954C12.9831 13.3261 12.9598 13.6466 12.9598 13.9702V19.9997H9.52945C9.52945 19.9997 9.57549 10.2166 9.52945 9.20395H12.96V10.7338C12.9531 10.7459 12.9434 10.7576 12.9373 10.7691H12.96V10.7338C13.4159 9.9998 14.2288 8.95044 16.0514 8.95044C18.3081 8.95044 20 10.4934 20 13.8088ZM5.94104 4C4.76767 4 4 4.80602 4 5.86502C4 6.90152 4.74541 7.73083 5.89602 7.73083H5.91827C7.11466 7.73083 7.85854 6.90152 7.85854 5.86502C7.83577 4.80602 7.11466 4 5.94104 4ZM4.20388 20H7.63292V9.20395H4.20388V20Z" fill="#060F42"/>
</svg>
