<svg width="24" height="25" viewBox="0 0 24 25" fill="none" xmlns="http://www.w3.org/2000/svg">
<path fill-rule="evenodd" clip-rule="evenodd" d="M19.8253 5.42833C20.682 5.65898 21.3574 6.33443 21.5881 7.19109C22.0164 8.75616 21.9999 12.0181 21.9999 12.0181C21.9999 12.0181 21.9999 15.2635 21.5881 16.8286C21.3574 17.6853 20.682 18.3607 19.8253 18.5914C18.2602 19.0032 12 19.0032 12 19.0032C12 19.0032 5.75616 19.0032 4.17462 18.5749C3.31795 18.3443 2.6425 17.6688 2.41186 16.8121C2 15.2635 2 12.0016 2 12.0016C2 12.0016 2 8.75616 2.41186 7.19109C2.6425 6.33443 3.33443 5.6425 4.17462 5.41186C5.73969 5 12 5 12 5C12 5 18.2602 5 19.8253 5.42833ZM15 12.0016L10 15V9.0033L15 12.0016Z" fill="#060F42"/>
</svg>
