<svg width="24" height="24" viewBox="0 0 24 24" fill="none" xmlns="http://www.w3.org/2000/svg">
<path d="M10.8889 12.5827C11.2884 13.1121 11.7981 13.5502 12.3835 13.8672C12.9688 14.1842 13.6161 14.3727 14.2814 14.4199C14.9467 14.4672 15.6144 14.372 16.2394 14.1409C16.8643 13.9099 17.4318 13.5482 17.9034 13.0806L20.6943 10.3141C21.5416 9.44449 22.0104 8.27977 21.9998 7.07081C21.9892 5.86186 21.5 4.70539 20.6376 3.8505C19.7752 2.9956 18.6085 2.51068 17.3889 2.50017C16.1693 2.48967 14.9943 2.95442 14.117 3.79433L12.5169 5.37125M13.1111 11.4173C12.7116 10.8879 12.2019 10.4498 11.6165 10.1328C11.0312 9.8158 10.3839 9.62728 9.71862 9.58005C9.05332 9.53282 8.38556 9.62798 7.76062 9.85906C7.13568 10.0901 6.56819 10.4518 6.09663 10.9194L3.30573 13.6859C2.45842 14.5555 1.98958 15.7202 2.00018 16.9292C2.01077 18.1381 2.49997 19.2946 3.36239 20.1495C4.22482 21.0044 5.39148 21.4893 6.61108 21.4998C7.83069 21.5103 9.00567 21.0456 9.88296 20.2057L11.4738 18.6288" stroke="#01579B" stroke-width="1.5" stroke-linecap="round" stroke-linejoin="round"/>
</svg>
