<svg width="24" height="24" viewBox="0 0 24 24" fill="none" xmlns="http://www.w3.org/2000/svg">
<path d="M9.4987 18.9993C10.143 18.9993 10.6654 18.477 10.6654 17.8327C10.6654 17.1883 10.143 16.666 9.4987 16.666C8.85437 16.666 8.33203 17.1883 8.33203 17.8327C8.33203 18.477 8.85437 18.9993 9.4987 18.9993Z" fill="#D9D9D9"/>
<path d="M15.8346 18.9993C16.479 18.9993 17.0013 18.477 17.0013 17.8327C17.0013 17.1883 16.479 16.666 15.8346 16.666C15.1903 16.666 14.668 17.1883 14.668 17.8327C14.668 18.477 15.1903 18.9993 15.8346 18.9993Z" fill="#D9D9D9"/>
<path d="M5.19141 6H7.00093L9.33429 13M7.74698 8.21704L16.9059 8.85506C17.8717 8.92233 18.5922 9.7721 18.5008 10.7358L18.4951 10.7959C18.4195 11.5923 17.8054 12.2318 17.0127 12.3396L8.70992 13.469C8.18398 13.5406 7.82258 14.0345 7.91356 14.5574V14.5574C7.9916 15.0059 8.38089 15.3333 8.83613 15.3333H17.7629" stroke="#D9D9D9" stroke-linecap="round" stroke-linejoin="round"/>
</svg>
