<svg width="32" height="32" viewBox="0 0 32 32" fill="none" xmlns="http://www.w3.org/2000/svg">
<path d="M12.25 26.5C13.2165 26.5 14 25.7165 14 24.75C14 23.7835 13.2165 23 12.25 23C11.2835 23 10.5 23.7835 10.5 24.75C10.5 25.7165 11.2835 26.5 12.25 26.5Z" fill="#06A56C"/>
<path d="M21.75 26.5C22.7165 26.5 23.5 25.7165 23.5 24.75C23.5 23.7835 22.7165 23 21.75 23C20.7835 23 20 23.7835 20 24.75C20 25.7165 20.7835 26.5 21.75 26.5Z" fill="#06A56C"/>
<path d="M5.78516 7H8.49944L11.9995 17.5M9.61852 10.3256L24.2378 11.3439C25.2035 11.4112 25.9241 12.261 25.8326 13.2247L25.6761 14.8736C25.6005 15.6701 24.9865 16.3096 24.1937 16.4174L11.0629 18.2035C10.274 18.3108 9.73191 19.0517 9.86839 19.8361V19.8361C9.98545 20.5089 10.5694 21 11.2522 21H24.6423" stroke="#06A56C" stroke-width="1.5" stroke-linecap="round" stroke-linejoin="round"/>
</svg>
