<svg width="24" height="24" viewBox="0 0 24 24" fill="none" xmlns="http://www.w3.org/2000/svg">
<path d="M5.62502 20.0995C5.11668 20.0321 5.76669 16.8989 5.76669 16.8989H4.66668C3.73334 16.8989 3 16.1576 3 15.2142V5.58511C3 4.64167 3.73334 3.90039 4.66668 3.90039H19.3335C20.2668 3.90039 21.0002 4.64167 21.0002 5.58511V15.2142C21.0002 16.1576 20.2668 16.8989 19.3335 16.8989H10.4334C10.4334 16.8989 6.13337 20.1669 5.62502 20.0995ZM4.66668 4.57428C4.10001 4.57428 3.66667 5.0123 3.66667 5.58511V15.2142C3.66667 15.787 4.10001 16.225 4.66668 16.225H6.6667L6.37503 18.5166L10.2001 16.225H19.3335C19.9002 16.225 20.3335 15.787 20.3335 15.2142V5.58511C20.3335 5.0123 19.9002 4.57428 19.3335 4.57428H4.66668Z" fill="#01579B" stroke="#01579B" stroke-width="0.5"/>
<path d="M8.40001 11.1008C8.89707 11.1008 9.30002 10.6979 9.30002 10.2008C9.30002 9.70373 8.89707 9.30078 8.40001 9.30078C7.90295 9.30078 7.5 9.70373 7.5 10.2008C7.5 10.6979 7.90295 11.1008 8.40001 11.1008Z" fill="#01579B"/>
<path d="M11.9996 11.1008C12.4967 11.1008 12.8996 10.6979 12.8996 10.2008C12.8996 9.70373 12.4967 9.30078 11.9996 9.30078C11.5026 9.30078 11.0996 9.70373 11.0996 10.2008C11.0996 10.6979 11.5026 11.1008 11.9996 11.1008Z" fill="#01579B"/>
<path d="M15.5992 11.1008C16.0963 11.1008 16.4992 10.6979 16.4992 10.2008C16.4992 9.70373 16.0963 9.30078 15.5992 9.30078C15.1022 9.30078 14.6992 9.70373 14.6992 10.2008C14.6992 10.6979 15.1022 11.1008 15.5992 11.1008Z" fill="#01579B"/>
</svg>
