<svg width="32" height="32" viewBox="0 0 32 32" fill="none" xmlns="http://www.w3.org/2000/svg">
<rect x="5.25" y="12.25" width="21.5" height="4.5" rx="1.25" stroke="#01579B" stroke-width="1.5"/>
<path d="M8.25 17.25H23.75V25.5C23.75 26.1904 23.1904 26.75 22.5 26.75H9.5C8.80964 26.75 8.25 26.1904 8.25 25.5V17.25Z" stroke="#01579B" stroke-width="1.5"/>
<line x1="15.75" y1="11.375" x2="15.75" y2="27.375" stroke="#01579B" stroke-width="1.5"/>
<path d="M21.7174 10.1596C21.6454 10.2012 21.4887 10.2631 21.2203 10.328C20.9633 10.3901 20.6468 10.445 20.2854 10.4925C19.563 10.5875 18.7068 10.6469 17.8771 10.6832C17.272 10.7097 16.6877 10.7236 16.1897 10.7307C16.4627 10.3621 16.7824 9.93807 17.1214 9.50318C17.6106 8.87546 18.1336 8.23331 18.6107 7.70536C19.1103 7.15266 19.4924 6.80208 19.7073 6.67801C20.6688 6.12293 21.8981 6.45234 22.4532 7.41376C23.0083 8.37518 22.6789 9.60454 21.7174 10.1596Z" stroke="#01579B" stroke-width="1.5"/>
<path d="M12.2754 6.53018C12.3474 6.57175 12.4794 6.67651 12.6698 6.87654C12.8521 7.06806 13.0579 7.31466 13.2798 7.60388C13.7232 8.182 14.2027 8.89383 14.649 9.59427C14.9745 10.105 15.2787 10.604 15.5339 11.0318C15.0782 10.9796 14.5511 10.9148 14.005 10.8387C13.2167 10.7289 12.3991 10.597 11.7033 10.4478C10.9749 10.2915 10.4802 10.1359 10.2653 10.0118C9.3039 9.45671 8.9745 8.22735 9.52957 7.26593C10.0846 6.30451 11.314 5.9751 12.2754 6.53018Z" stroke="#01579B" stroke-width="1.5"/>
</svg>
