<svg width="32" height="32" viewBox="0 0 32 32" fill="none" xmlns="http://www.w3.org/2000/svg">
<ellipse cx="16.0011" cy="7.62219" rx="0.79017" ry="0.817016" stroke="#01579B" stroke-width="1.5" stroke-linecap="round" stroke-linejoin="round"/>
<line x1="4.10742" y1="19.9443" x2="12.8796" y2="19.9443" stroke="#01579B" stroke-width="1.5" stroke-linecap="round" stroke-linejoin="round"/>
<line x1="19.1211" y1="19.1274" x2="27.8933" y2="19.1274" stroke="#01579B" stroke-width="1.5" stroke-linecap="round" stroke-linejoin="round"/>
<path fill-rule="evenodd" clip-rule="evenodd" d="M27.1905 13.6505C26.7131 13.8076 26.2129 13.9148 25.6963 13.9659L27.8929 19.2073C27.8579 20.5593 27.3367 21.5298 26.6053 22.1751C25.8336 22.856 24.7826 23.2131 23.7063 23.2131C22.6299 23.2131 21.5789 22.856 20.8072 22.1751C20.074 21.5282 19.552 20.5542 19.5193 19.1968L21.8239 13.2397C21.3649 13.0056 20.9351 12.7223 20.5416 12.3968L18.0682 18.7904C18.0348 18.8767 18.0177 18.9684 18.0177 19.061C18.0177 20.9005 18.7203 22.3342 19.8148 23.2999C20.8951 24.2531 22.3133 24.7131 23.7063 24.7131C25.0992 24.7131 26.5174 24.2531 27.5977 23.2999C28.6922 22.3342 29.3948 20.9005 29.3948 19.061C29.3948 18.9614 29.375 18.8629 29.3365 18.7711L27.1905 13.6505ZM18.0175 6.50146L8.43446 7.28372C8.15527 7.30651 7.91204 7.48299 7.80377 7.74134L2.66767 19.9966C2.62919 20.0884 2.60938 20.1869 2.60938 20.2865C2.60938 22.2225 3.33238 23.7314 4.46225 24.7499C5.5791 25.7567 7.04879 26.245 8.49548 26.245C9.94217 26.245 11.4119 25.7567 12.5287 24.7499C13.6586 23.7314 14.3816 22.2225 14.3816 20.2865C14.3816 20.1869 14.3618 20.0884 14.3233 19.9966L9.58672 8.69465L18.0712 8.00207C18.0243 7.67482 18 7.34027 18 7.00005C18 6.83241 18.0059 6.66615 18.0175 6.50146ZM12.8799 20.4332L8.49548 9.97162L4.1111 20.4332C4.14566 21.8927 4.69597 22.9411 5.46657 23.6358C6.27576 24.3652 7.37412 24.745 8.49548 24.745C9.61684 24.745 10.7152 24.3652 11.5244 23.6358C12.295 22.9411 12.8453 21.8927 12.8799 20.4332Z" fill="#01579B"/>
</svg>
